<svg width="19" height="20" viewBox="0 0 19 20" fill="none" xmlns="http://www.w3.org/2000/svg">
<path d="M18.6707 7.41927C18.6131 7.24946 18.507 7.10025 18.3655 6.99006C18.224 6.87987 18.0533 6.81353 17.8746 6.79922L12.6454 6.38371L10.3826 1.3747C10.3105 1.21337 10.1933 1.07634 10.0451 0.980156C9.89688 0.883971 9.72399 0.832739 9.5473 0.832642C9.3706 0.832545 9.19766 0.883587 9.04933 0.979609C8.90101 1.07563 8.78364 1.21253 8.7114 1.37378L6.44858 6.38371L1.21943 6.79922C1.04374 6.81314 0.875778 6.87738 0.73564 6.98425C0.595502 7.09113 0.489122 7.23612 0.429227 7.40187C0.369332 7.56762 0.358458 7.74712 0.397905 7.91889C0.437353 8.09066 0.525452 8.24743 0.651663 8.37044L4.51597 12.1375L3.14929 18.0555C3.10779 18.2347 3.12109 18.4221 3.18747 18.5936C3.25384 18.7651 3.37022 18.9127 3.52151 19.0172C3.67279 19.1217 3.852 19.1783 4.03587 19.1797C4.21975 19.1811 4.3998 19.1272 4.55266 19.025L9.547 15.6955L14.5413 19.025C14.6976 19.1288 14.8818 19.1822 15.0693 19.1781C15.2568 19.1739 15.4386 19.1125 15.5901 19.002C15.7416 18.8916 15.8557 18.7373 15.917 18.5601C15.9782 18.3828 15.9838 18.1911 15.9328 18.0106L14.2552 12.1403L18.4157 8.39612C18.6882 8.15031 18.7881 7.7669 18.6707 7.41927V7.41927Z" fill="#F3CD03"/>
</svg>
